<?xml version="1.0" encoding="UTF-8"?> <svg xmlns="http://www.w3.org/2000/svg" xmlns:xlink="http://www.w3.org/1999/xlink" width="91px" height="20px" viewBox="0 0 91 20" version="1.1"><!-- Generator: Sketch 58 (84663) - https://sketch.com --><title>BCM-One-clr-no-tagline</title><desc>Created with Sketch.</desc><g id="Page-1" stroke="none" stroke-width="1" fill="none" fill-rule="evenodd"><g id="BCM-One---New-Branding" transform="translate(-449.000000, -34.000000)" fill-rule="nonzero"><g id="BCM-One-clr-no-tagline" transform="translate(449.000000, 34.000000)"><path d="M87.7666667,2.70909091 L88.7242424,2.70909091 L88.7242424,2.94289818 L88.3727273,2.94289818 L88.3727273,4.04242424 L88.1181818,4.04242424 L88.1181818,2.94289818 L87.7666667,2.94289818 L87.7666667,2.70909091 Z M90.1181818,4.04242424 L90.0212121,3.20830102 L89.6969697,3.89392503 L89.5060606,3.89392503 L89.1848485,3.20830102 L89.0909091,4.04242424 L88.8333333,4.04242424 L88.9939394,2.70909091 L89.2030303,2.70909091 L89.6030303,3.59376705 L90.0030303,2.70909091 L90.2272727,2.70909091 L90.3848485,4.04242424 L90.1181818,4.04242424 Z" id="Shape" fill="#0A3F62"></path><path d="M9.86666667,6.91515152 C9.3498197,6.40098676 8.74002561,5.98965852 8.06969697,5.7030303 C7.374395,5.40990597 6.62729033,5.25945455 5.87272727,5.26060606 C5.6322867,5.25671442 5.39196903,5.27395242 5.15454545,5.31212121 C4.93333333,5.35151515 4.72727273,5.37878788 4.50606061,5.41515152 L5.05151515,7.69393939 C5.18418994,7.66387782 5.31889718,7.64362109 5.45454545,7.63333333 C5.59732194,7.61582364 5.74100382,7.60671703 5.88484848,7.60606061 C6.75678324,7.61052088 7.59225815,7.95645973 8.21212121,8.56969697 C8.50928648,8.87246473 8.75221524,9.22404512 8.93030303,9.60909091 C9.27794358,10.4240718 9.27794358,11.3456252 8.93030303,12.1606061 C8.76144391,12.5517372 8.51743515,12.9059102 8.21212121,13.2030303 C7.90889012,13.5044288 7.55234536,13.7469204 7.16060606,13.9181818 C6.34562518,14.2658224 5.42407179,14.2658224 4.60909091,13.9181818 C4.2120157,13.7550782 3.85297667,13.511592 3.55454545,13.2030303 C3.25185139,12.9043535 3.00910294,12.5505168 2.83939394,12.1606061 C2.66170585,11.7585208 2.56787518,11.3244251 2.56363636,10.8848485 L2.56363636,0.0454545455 L0.221212121,2.33636364 L0.221212121,10.8848485 C0.221212121,11.6402777 0.371605879,12.3881481 0.663636364,13.0848485 C0.956000827,13.7520361 1.36665381,14.3608291 1.87575758,14.8818182 C2.39118828,15.3962952 3.00005664,15.8076927 3.66969697,16.0939394 C4.36615736,16.3867513 5.11418703,16.5371815 5.86969697,16.5363636 C6.62596276,16.5450231 7.37557079,16.3942754 8.06969697,16.0939394 C8.74567039,15.8177755 9.35740785,15.4051364 9.86666667,14.8818182 C10.3812323,14.3653009 10.7926155,13.7554253 11.0787879,13.0848485 C11.3770443,12.3902713 11.5257234,11.6406809 11.5151515,10.8848485 C11.5217509,10.1287773 11.3710882,9.37959155 11.0727273,8.68484848 C10.7856285,8.02283376 10.3741461,7.42206942 9.86060606,6.91515152" id="Path" fill="#0A3F62"></path><path d="M15.5818182,8.55757576 C15.8821525,8.254304 16.2409072,8.01513421 16.6363636,7.85454545 C17.446259,7.51672658 18.3557551,7.50694703 19.1727273,7.82727273 C19.5426092,7.98442388 19.8852441,8.19920994 20.1878788,8.46363636 L21.8787879,6.83939394 L21.8424242,6.8 C21.3360628,6.31124145 20.7389969,5.92623688 20.0848485,5.66666667 C19.3930641,5.38957606 18.6542999,5.24861409 17.9090909,5.25151515 C17.1580149,5.24595824 16.4139873,5.39662124 15.7242424,5.69393939 C15.048269,5.97010327 14.4365315,6.38274236 13.9272727,6.90606061 C13.4144605,7.42401824 13.0033162,8.03353973 12.7151515,8.7030303 C12.1092294,10.1113283 12.1092294,11.7068535 12.7151515,13.1151515 C13.0038976,13.7834263 13.4149953,14.3918508 13.9272727,14.9090909 C14.4441197,15.4232557 15.0539138,15.8345839 15.7242424,16.1212121 C17.1179821,16.7026655 18.6847301,16.7113757 20.0848485,16.1454545 C20.7388209,15.8869268 21.3358945,15.5029467 21.8424242,15.0151515 L21.8787879,14.9757576 L20.1878788,13.3333333 C19.8892268,13.6038432 19.5456996,13.8202141 19.1727273,13.9727273 C18.770984,14.1329369 18.3415568,14.2122316 17.9090909,14.2060606 C17.4715436,14.2066159 17.0384786,14.1179407 16.6363636,13.9454545 C16.2384844,13.7838516 15.8791526,13.5401669 15.5818182,13.230303 C15.283943,12.9269748 15.0409464,12.5742709 14.8636364,12.1878788 C14.6932335,11.7841592 14.6056432,11.3503295 14.6060606,10.9121212 C14.6071663,10.4701443 14.6946658,10.0326464 14.8636364,9.62424242 C15.0301472,9.22112382 15.274152,8.85460176 15.5818182,8.54545455" id="Path" fill="#00B5EC"></path><path d="M41.8727273,6.93030303 C41.3483842,6.41539709 40.7315136,6.00414997 40.0545455,5.71818182 C38.6409948,5.11220391 37.0408233,5.11220391 35.6272727,5.71818182 C34.9503045,6.00414997 34.3334339,6.41539709 33.8090909,6.93030303 C33.635137,7.09987967 33.4740833,7.28220436 33.3272727,7.47575758 C33.1813442,7.28148367 33.0202327,7.09909327 32.8454545,6.93030303 C32.3223267,6.41390303 31.7051527,6.00245364 31.0272727,5.71818182 C29.6148162,5.11200245 28.0154869,5.11200245 26.6030303,5.71818182 C25.9256442,6.00337312 25.3086351,6.41471255 24.7848485,6.93030303 C24.2602646,7.44503167 23.8367934,8.05351458 23.5363636,8.72424242 C23.2439108,9.41481112 23.1003836,10.1592938 23.1151515,10.9090909 L23.1151515,16.4424242 L25.4545455,16.4424242 L25.4545455,10.9090909 C25.4710962,10.4632366 25.5740085,10.0248304 25.7575758,9.61818182 C25.9270349,9.2252337 26.1756373,8.87141376 26.4878788,8.57878788 C26.7979706,8.28260927 27.1594277,8.04540306 27.5545455,7.87878788 C27.9619796,7.70630745 28.3999858,7.61767561 28.8424242,7.61818182 C29.2811034,7.61609033 29.7154672,7.70482024 30.1181818,7.87878788 C30.5122597,8.04197009 30.8705291,8.28081648 31.1727273,8.58181818 C31.4924103,8.87327448 31.7491758,9.2269717 31.9272727,9.62121212 C32.1137145,10.0268794 32.216763,10.4658667 32.230303,10.9121212 L32.230303,16.4424242 L34.5727273,16.4424242 L34.5727273,10.9090909 C34.5690412,10.4665593 34.6535118,10.0277235 34.8212121,9.61818182 C34.9797476,9.22607594 35.2193203,8.87187994 35.5242424,8.57878788 C35.8273582,8.28252042 36.1828882,8.04515803 36.5727273,7.87878788 C37.8064748,7.36389364 39.2288064,7.64118855 40.1787879,8.58181818 C40.8258848,9.18441794 41.1990933,10.0249579 41.2121212,10.9090909 L41.2121212,16.4424242 L43.4272727,16.4424242 L43.4272727,10.9090909 C43.4501658,10.1609882 43.3148939,9.41647773 43.030303,8.72424242 C42.7548897,8.05897176 42.3582588,7.45066752 41.8606061,6.93030303" id="Path" fill="#0A3F62"></path><path d="M63.8151515,6.91515152 C63.2978382,6.40155439 62.6881588,5.99030367 62.0181818,5.7030303 C60.6160609,5.11325318 59.0354542,5.11325318 57.6333333,5.7030303 C56.9616097,5.98049633 56.3540888,6.39307418 55.8484848,6.91515152 C55.33432,7.43199848 54.9229918,8.04179258 54.6363636,8.71212121 C54.0464461,10.1194692 54.0464461,11.7047732 54.6363636,13.1121212 C54.926173,13.7762208 55.3372339,14.3804804 55.8484848,14.8939394 C56.3627164,15.4018066 56.9682909,15.807922 57.6333333,16.0909091 C58.3295994,16.3843524 59.0777585,16.5348086 59.8333333,16.5333333 C60.5844436,16.5392445 61.3285433,16.3885669 62.0181818,16.0909091 C62.6884936,15.8110434 63.2986039,15.4046462 63.8151515,14.8939394 C64.3277352,14.3815823 64.7389779,13.7770557 65.0272727,13.1121212 C65.6333045,11.7080582 65.6333045,10.1161843 65.0272727,8.71212121 C64.7446021,8.03964485 64.33279,7.42913348 63.8151515,6.91515152 M62.8787879,12.1757576 C62.7142239,12.5646208 62.4754261,12.917671 62.1757576,13.2151515 C61.8671803,13.508261 61.5104585,13.7460755 61.1212121,13.9181818 C60.2964282,14.2641552 59.3672082,14.2641552 58.5424242,13.9181818 C58.1462533,13.7521913 57.7845133,13.5137719 57.4757576,13.2151515 C56.8525297,12.6097091 56.5006036,11.7779827 56.5,10.9090909 C56.5006397,10.4657874 56.5892182,10.0270151 56.7606061,9.61818182 C56.9246067,9.22602227 57.1681124,8.87211321 57.4757576,8.57878788 C57.7868815,8.28391048 58.1480894,8.04686785 58.5424242,7.87878788 C59.3672082,7.53281455 60.2964282,7.53281455 61.1212121,7.87878788 C61.51529,8.04197009 61.8735594,8.28081648 62.1757576,8.58181818 C62.4787036,8.87656948 62.717977,9.23032288 62.8787879,9.62121212 C63.0498682,10.0301398 63.1384342,10.46885 63.1393939,10.9121212 C63.1459952,11.3512337 63.0570739,11.7865342 62.8787879,12.1878788" id="Shape" fill="#0A3F62"></path><path d="M76.4121212,6.93030303 C75.8889933,6.41390303 75.2718194,6.00245364 74.5939394,5.71818182 C73.1814827,5.11200245 71.5821536,5.11200245 70.169697,5.71818182 C68.8103467,6.29283767 67.7249494,7.36955173 67.1393939,8.72424242 C66.8363636,9.41515152 66.5818182,10.130303 66.7121212,10.9 L66.7121212,16.4424242 L69.0545455,16.4424242 L69.0545455,10.9090909 C69.0593412,10.4650028 69.1520333,10.0262607 69.3272727,9.61818182 C69.4912733,9.22602227 69.7347791,8.87211321 70.0424242,8.57878788 C70.3498948,8.28220521 70.7094488,8.04489952 71.1030303,7.87878788 C71.5065839,7.70750345 71.9403894,7.61888764 72.3787879,7.61818182 C72.8174324,7.61643912 73.2517258,7.70515464 73.6545455,7.87878788 C74.4468667,8.20995464 75.0808112,8.83412945 75.4242424,9.62121212 C75.5967245,10.0297084 75.6853479,10.4687038 75.6848485,10.9121212 L75.6848485,16.4424242 L78.0272727,16.4424242 L78.0272727,10.9090909 C78.0408942,10.1629282 77.8995303,9.42205709 77.6121212,8.73333333 C77.3278727,8.06260576 76.9162312,7.45337642 76.4,6.93939394" id="Path" fill="#0A3F62"></path><rect id="Rectangle" fill="#0A3F62" x="48.4818182" y="0.942424242" width="1.43030303" height="18.8727273"></rect><path d="M87.8939394,12.1363636 L90.3515152,12.1363636 C90.4547482,11.7325414 90.5036642,11.3167549 90.4969697,10.9 C90.5005133,10.1465918 90.3445715,9.40096306 90.0393939,8.71212121 C89.7525888,8.04636773 89.3411655,7.44157524 88.8272727,6.93030303 C88.3137964,6.41205367 87.7031564,6.00015482 87.030303,5.71818182 C86.3384279,5.43258524 85.5969864,5.28635648 84.8484848,5.28787879 C84.0924136,5.28127939 83.3432279,5.43194209 82.6484848,5.73030303 C81.9782124,6.00881324 81.3718833,6.42128209 80.8666667,6.94242424 C80.3562539,7.45921136 79.949897,8.06926112 79.669697,8.73939394 C79.0799448,10.1457243 79.0799448,11.7300333 79.669697,13.1363636 C79.95383,13.8007845 80.3598094,14.4061564 80.8666667,14.9212121 C81.3806655,15.431809 81.9847955,15.8427817 82.6484848,16.1333333 C83.3464333,16.4195535 84.0941397,16.5647692 84.8484848,16.5606061 C85.6005718,16.5664953 86.3456564,16.4158272 87.0363636,16.1181818 C87.6101982,15.8723047 88.141913,15.5379378 88.6121212,15.1272727 L86.6666667,13.669697 C86.500143,13.7746475 86.325907,13.8668305 86.1454545,13.9454545 C85.3206706,14.2914279 84.3914506,14.2914279 83.5666667,13.9454545 C83.1710897,13.7783516 82.8095439,13.5400601 82.5,13.2424242 C82.1994194,12.941985 81.9569624,12.5885732 81.7848485,12.2 C81.7865627,12.1869246 81.7865627,12.1736814 81.7848485,12.1606061 L87.9151515,12.1606061 L87.8939394,12.1363636 Z M81.6969697,9.79393939 C81.7041555,9.73256345 81.7271242,9.67409724 81.7636364,9.62424242 C81.9300685,9.22896424 82.1731273,8.87055588 82.4787879,8.56969697 C82.7871179,8.27358955 83.1491576,8.03908648 83.5454545,7.87878788 C84.3688739,7.53126297 85.2977927,7.53126297 86.1212121,7.87878788 C86.5160833,8.04048006 86.8746297,8.27951097 87.1757576,8.58181818 C87.479113,8.87740012 87.7184164,9.23222948 87.8787879,9.62424242 C87.9060606,9.68787879 87.930303,9.66363636 87.9454545,9.79393939 L81.6969697,9.79393939 Z" id="Shape" fill="#0A3F62"></path></g></g></g></svg> 