<?xml version="1.0" encoding="UTF-8"?><svg id="Layer_1" xmlns="http://www.w3.org/2000/svg" viewBox="0 0 216 216"><defs><style>.cls-1{fill:#897a52;}.cls-2{fill:#51473d;}</style></defs><g><polygon class="cls-2" points="43.84 149.62 33.59 133.52 29.56 133.52 29.56 153.11 33.59 153.11 33.59 140.71 41.61 153.11 46.13 153.11 54.15 140.66 54.15 153.11 58.18 153.11 58.18 133.52 54.15 133.52 43.84 149.62"/><path class="cls-2" d="M86.89,144.45c0,1.54-.31,2.7-.92,3.5-.62,.8-1.45,1.34-2.48,1.64-1.04,.29-2.22,.44-3.53,.44s-2.56-.15-3.62-.44c-1.06-.29-1.89-.84-2.5-1.64-.61-.8-.91-1.96-.91-3.5v-10.93h-4.03v11.36c0,1.29,.19,2.42,.56,3.39,.37,.97,.89,1.79,1.56,2.45,.67,.67,1.46,1.21,2.38,1.62,.92,.41,1.93,.71,3.04,.89,1.11,.18,2.28,.27,3.51,.27s2.33-.09,3.41-.27c1.08-.18,2.08-.48,3-.89,.92-.41,1.72-.95,2.41-1.62,.69-.67,1.22-1.48,1.59-2.45,.37-.97,.56-2.1,.56-3.39v-11.36h-4.03v10.93Z"/><path class="cls-2" d="M121.89,136.44c-.88-.9-2.05-1.61-3.53-2.14-1.47-.52-3.31-.79-5.51-.79h-11.21v19.6h11.21c2.1,0,3.88-.27,5.34-.8,1.46-.53,2.64-1.26,3.54-2.18,.9-.92,1.55-1.97,1.97-3.17,.41-1.19,.62-2.43,.62-3.72s-.19-2.52-.56-3.7c-.37-1.17-1-2.2-1.88-3.1Zm-2.01,9.19c-.24,.77-.65,1.45-1.21,2.06-.57,.6-1.33,1.09-2.29,1.44-.96,.35-2.17,.53-3.62,.53h-7.09v-12.69h7.09c1.45,0,2.66,.17,3.62,.51,.96,.34,1.72,.81,2.29,1.39,.56,.58,.97,1.25,1.21,2,.24,.75,.36,1.53,.36,2.36s-.12,1.62-.36,2.39Z"/><path class="cls-2" d="M153.29,143.39c.58-.4,1.02-.93,1.35-1.57,.32-.65,.48-1.43,.48-2.36,0-1.37-.31-2.5-.94-3.38-.63-.88-1.5-1.52-2.62-1.94-1.12-.41-2.44-.62-3.95-.62h-13.29v19.6h4.03v-7.24h7.6c1.27,0,2.25,.08,2.92,.24,.68,.16,1.15,.45,1.41,.86,.26,.41,.39,1,.39,1.74v4.39h4.03v-4.66c0-1.09-.23-1.91-.68-2.47-.45-.56-1.14-.94-2.04-1.15-.51-.12-1.11-.2-1.78-.26,.38-.07,.76-.15,1.12-.25,.75-.21,1.41-.52,1.98-.92Zm-3.09-1.48c-.6,.55-1.46,.82-2.59,.82h-9.27v-5.75h9.27c1.13,0,1.99,.23,2.59,.7,.6,.46,.89,1.14,.89,2.03s-.3,1.67-.89,2.21Z"/><path class="cls-2" d="M172.78,133.52l-9.21,19.6h4.36l1.93-4.27h10.23l1.95,4.27h4.39l-9.3-19.6h-4.36Zm-1.39,11.96l3.57-7.89,3.6,7.89h-7.18Z"/></g><g><path class="cls-2" d="M24.02,163.87c1.25-.51,2.71-.77,4.36-.77,1.33,0,2.48,.16,3.45,.48,.97,.32,1.76,.79,2.38,1.41,.62,.62,1.06,1.35,1.32,2.2h4c-.16-1.59-.71-2.95-1.64-4.07-.93-1.12-2.2-1.98-3.8-2.59-1.6-.61-3.51-.91-5.71-.91-1.84,0-3.52,.22-5.04,.65-1.52,.44-2.84,1.08-3.94,1.94-1.1,.86-1.95,1.92-2.56,3.2-.61,1.27-.91,2.76-.91,4.45s.3,3.18,.91,4.44c.61,1.26,1.46,2.32,2.56,3.17,1.1,.85,2.41,1.48,3.94,1.91,1.52,.42,3.21,.64,5.04,.64,2.2,0,4.1-.29,5.69-.88,1.6-.59,2.86-1.43,3.79-2.54,.93-1.11,1.48-2.45,1.66-4.03h-4c-.28,.81-.73,1.51-1.35,2.12-.62,.61-1.4,1.07-2.36,1.39-.96,.32-2.1,.48-3.44,.48-1.66,0-3.11-.26-4.36-.77-1.25-.51-2.22-1.27-2.91-2.26-.69-.99-1.03-2.21-1.03-3.67s.34-2.71,1.03-3.71c.69-1,1.66-1.76,2.91-2.27Z"/><path class="cls-2" d="M56.91,160.01l-9.21,19.6h4.36l1.93-4.27h10.23l1.95,4.27h4.39l-9.3-19.6h-4.36Zm-1.39,11.96l3.57-7.89,3.6,7.89h-7.18Z"/><path class="cls-2" d="M97.14,161.62c-.72-.55-1.55-.95-2.51-1.21-.96-.26-1.98-.39-3.07-.39h-12.14v19.6h4.03v-6.36h8.12c1.09,0,2.11-.12,3.07-.35,.96-.23,1.8-.6,2.51-1.12,.72-.51,1.28-1.18,1.68-2.01,.4-.83,.61-1.83,.61-3s-.2-2.21-.61-3.06c-.4-.85-.96-1.55-1.68-2.09Zm-2.68,7.56c-.63,.58-1.47,.86-2.54,.86h-8.48v-6.57h8.48c1.07,0,1.92,.28,2.54,.85,.63,.56,.94,1.38,.94,2.45s-.31,1.83-.94,2.41Z"/><rect class="cls-2" x="109.85" y="160.01" width="4.03" height="19.6"/><polygon class="cls-2" points="123.42 163.37 131.74 163.37 131.74 179.61 135.77 179.61 135.77 163.37 144.07 163.37 144.07 160.01 123.42 160.01 123.42 163.37"/><path class="cls-2" d="M160.45,160.01l-9.21,19.6h4.36l1.93-4.27h10.23l1.95,4.27h4.39l-9.3-19.6h-4.36Zm-1.39,11.96l3.57-7.89,3.6,7.89h-7.18Z"/><polygon class="cls-2" points="187.04 176.24 187.04 160.01 183.02 160.01 183.02 179.61 200.07 179.61 200.07 176.24 187.04 176.24"/></g><g><polygon class="cls-2" points="108 69.85 74.6 50.67 74.6 95.25 78.52 97.5 78.52 57.44 108 74.37 108 74.37 137.48 57.44 137.48 97.5 141.4 95.25 141.4 50.67 108 69.85"/><g><path class="cls-1" d="M82.44,99.76l23.6,13.56v-21.94c0-8.42-4.5-16.19-11.8-20.39-5.25-3.02-11.8,.77-11.8,6.83v21.94Z"/><path class="cls-1" d="M133.56,77.81c0-6.06-6.55-9.85-11.8-6.83-7.3,4.19-11.8,11.97-11.8,20.39v21.94l23.6-13.56v-21.94Z"/><path class="cls-1" d="M108,36l-25.53,14.67,5.42,3.11c1.74-2.09,3.84-3.89,6.26-5.3l.15-.08c5.24-2.96,11.75,.82,11.75,6.85v8.95l1.96,1.13,1.96-1.13v-8.95c0-6.04,6.51-9.82,11.75-6.85l.15,.08c2.42,1.41,4.52,3.21,6.26,5.3l5.42-3.11-25.53-14.67Z"/></g></g></svg>