<?xml version="1.0" encoding="UTF-8"?><svg id="Layer_1" xmlns="http://www.w3.org/2000/svg" viewBox="0 0 504 90"><defs><style>.cls-1{fill:#8a7b52;}.cls-2{fill:#51473d;}</style></defs><g><g><polygon class="cls-2" points="119.24 51.61 108.15 34.18 103.79 34.18 103.79 55.39 108.15 55.39 108.15 41.97 116.83 55.39 121.71 55.39 130.4 41.91 130.4 55.39 134.76 55.39 134.76 34.18 130.4 34.18 119.24 51.61"/><path class="cls-2" d="M165.83,46.02c0,1.66-.33,2.92-1,3.79-.67,.86-1.56,1.45-2.69,1.77-1.13,.32-2.4,.47-3.82,.47s-2.77-.16-3.92-.47c-1.15-.32-2.05-.91-2.7-1.77-.66-.86-.98-2.13-.98-3.79v-11.83h-4.36v12.29c0,1.4,.2,2.62,.6,3.67,.41,1.05,.97,1.93,1.69,2.65,.72,.72,1.58,1.31,2.57,1.75,.99,.45,2.09,.77,3.29,.97,1.2,.2,2.47,.3,3.8,.3s2.52-.1,3.69-.3c1.17-.2,2.25-.52,3.24-.97,.99-.45,1.86-1.03,2.61-1.75,.74-.72,1.32-1.61,1.72-2.65,.4-1.05,.61-2.27,.61-3.67v-12.29h-4.36v11.83Z"/><path class="cls-2" d="M203.71,37.35c-.95-.97-2.22-1.74-3.82-2.31-1.6-.57-3.58-.85-5.97-.85h-12.13v21.21h12.13c2.27,0,4.2-.29,5.78-.87,1.59-.58,2.86-1.37,3.84-2.36,.97-.99,1.68-2.14,2.13-3.43,.45-1.29,.67-2.63,.67-4.03s-.2-2.73-.61-4c-.4-1.27-1.08-2.39-2.03-3.36Zm-2.18,9.95c-.26,.83-.7,1.57-1.31,2.23-.61,.65-1.44,1.17-2.48,1.56-1.04,.38-2.34,.58-3.92,.58h-7.67v-13.73h7.67c1.57,0,2.88,.18,3.92,.56,1.04,.37,1.86,.87,2.48,1.51,.61,.63,1.05,1.35,1.31,2.16,.26,.81,.39,1.66,.39,2.56s-.13,1.76-.39,2.59Z"/><path class="cls-2" d="M237.7,44.87c.62-.44,1.11-1,1.46-1.7,.35-.7,.52-1.55,.52-2.56,0-1.49-.34-2.7-1.02-3.66-.68-.95-1.62-1.65-2.83-2.1-1.21-.45-2.64-.67-4.28-.67h-14.39v21.21h4.36v-7.83h8.23c1.38,0,2.43,.09,3.16,.26,.73,.18,1.24,.49,1.52,.93,.28,.45,.43,1.08,.43,1.89v4.75h4.36v-5.05c0-1.18-.25-2.07-.74-2.67-.49-.6-1.23-1.02-2.21-1.25-.55-.13-1.2-.22-1.93-.28,.41-.07,.82-.16,1.21-.27,.81-.23,1.52-.56,2.15-1Zm-3.34-1.61c-.64,.59-1.58,.88-2.8,.88h-10.03v-6.23h10.03c1.22,0,2.16,.25,2.8,.75,.64,.5,.97,1.23,.97,2.2s-.32,1.8-.97,2.39Z"/><path class="cls-2" d="M258.79,34.18l-9.97,21.21h4.72l2.09-4.62h11.07l2.11,4.62h4.75l-10.06-21.21h-4.72Zm-1.51,12.95l3.87-8.54,3.9,8.54h-7.77Z"/></g><g><path class="cls-2" d="M298.37,38.57c1.35-.56,2.93-.84,4.72-.84,1.44,0,2.69,.17,3.74,.52,1.05,.35,1.91,.86,2.57,1.52,.67,.67,1.14,1.46,1.43,2.38h4.33c-.17-1.73-.76-3.2-1.77-4.41s-2.38-2.15-4.11-2.8c-1.74-.66-3.8-.98-6.18-.98-1.99,0-3.81,.23-5.46,.7-1.65,.47-3.07,1.17-4.26,2.1-1.19,.93-2.11,2.08-2.77,3.46-.66,1.38-.98,2.98-.98,4.82s.33,3.44,.98,4.8c.66,1.37,1.58,2.51,2.77,3.43,1.19,.92,2.61,1.61,4.26,2.06,1.65,.46,3.47,.69,5.46,.69,2.38,0,4.44-.32,6.16-.95,1.73-.63,3.09-1.55,4.1-2.75,1-1.2,1.61-2.66,1.8-4.36h-4.33c-.31,.87-.79,1.64-1.46,2.29-.67,.66-1.52,1.16-2.56,1.51-1.04,.35-2.28,.52-3.72,.52-1.79,0-3.37-.28-4.72-.84-1.36-.56-2.4-1.37-3.15-2.44-.74-1.07-1.11-2.39-1.11-3.97s.37-2.93,1.11-4.01c.74-1.08,1.79-1.9,3.15-2.46Z"/><path class="cls-2" d="M333.97,34.39l-9.97,21.21h4.72l2.09-4.62h11.08l2.11,4.62h4.75l-10.06-21.21h-4.72Zm-1.51,12.95l3.87-8.54,3.9,8.54h-7.77Z"/><path class="cls-2" d="M377.52,36.13c-.77-.59-1.68-1.03-2.72-1.31-1.04-.28-2.15-.43-3.33-.43h-13.15v21.21h4.36v-6.88h8.79c1.18,0,2.29-.13,3.33-.38,1.04-.25,1.95-.65,2.72-1.21,.78-.56,1.38-1.28,1.82-2.18,.44-.9,.66-1.98,.66-3.25s-.22-2.39-.66-3.31c-.44-.92-1.04-1.67-1.82-2.26Zm-2.9,8.18c-.68,.62-1.6,.93-2.75,.93h-9.18v-7.11h9.18c1.16,0,2.08,.3,2.75,.92,.68,.61,1.02,1.5,1.02,2.66s-.34,1.98-1.02,2.61Z"/><rect class="cls-2" x="391.27" y="34.39" width="4.36" height="21.21"/><polygon class="cls-2" points="405.96 38.03 414.97 38.03 414.97 55.6 419.33 55.6 419.33 38.03 428.31 38.03 428.31 34.39 405.96 34.39 405.96 38.03"/><path class="cls-2" d="M446.05,34.39l-9.97,21.21h4.72l2.09-4.62h11.08l2.11,4.62h4.75l-10.06-21.21h-4.72Zm-1.51,12.95l3.87-8.54,3.9,8.54h-7.77Z"/><polygon class="cls-2" points="474.83 51.96 474.83 34.39 470.47 34.39 470.47 55.6 488.92 55.6 488.92 51.96 474.83 51.96"/></g></g><g><path class="cls-1" d="M34.71,41.33c-5.25-3.02-11.8,.77-11.8,6.83v21.94l23.6,13.56v-21.94c0-8.42-4.5-16.19-11.8-20.39Z"/><polygon class="cls-2" points="48.48 40.19 15.08 21.01 15.08 65.6 18.99 67.85 18.99 27.78 48.48 44.71 48.48 44.71 77.96 27.78 77.96 67.85 81.88 65.6 81.88 21.01 48.48 40.19"/><path class="cls-1" d="M62.24,41.33c-7.3,4.19-11.8,11.97-11.8,20.39v21.94l23.6-13.56v-21.94c0-6.06-6.55-9.85-11.8-6.83Z"/><path class="cls-1" d="M28.36,24.12c1.74-2.09,3.84-3.89,6.26-5.3l.15-.08c5.24-2.96,11.75,.82,11.75,6.85v8.95l1.96,1.13,1.96-1.13v-8.95c0-6.04,6.51-9.82,11.75-6.85l.15,.08c2.42,1.41,4.52,3.21,6.26,5.3l1.48-.85,3.93-2.26L48.48,6.34l-25.53,14.67,3.93,2.26,1.48,.85Z"/></g></svg>