<?xml version="1.0" encoding="UTF-8" standalone="no"?>
<svg
   id="a"
   viewBox="0 0 344.61699 119.22686"
   version="1.1"
   sodipodi:docname="rocket-mortgage.svg"
   width="344.617"
   height="119.22686"
   inkscape:version="1.2.2 (732a01da63, 2022-12-09)"
   xmlns:inkscape="http://www.inkscape.org/namespaces/inkscape"
   xmlns:sodipodi="http://sodipodi.sourceforge.net/DTD/sodipodi-0.dtd"
   xmlns="http://www.w3.org/2000/svg"
   xmlns:svg="http://www.w3.org/2000/svg">
  <sodipodi:namedview
     id="namedview78"
     pagecolor="#505050"
     bordercolor="#ffffff"
     borderopacity="1"
     inkscape:showpageshadow="0"
     inkscape:pageopacity="0"
     inkscape:pagecheckerboard="1"
     inkscape:deskcolor="#505050"
     showgrid="false"
     inkscape:zoom="2.126463"
     inkscape:cx="162.94664"
     inkscape:cy="40.442745"
     inkscape:window-width="1920"
     inkscape:window-height="1017"
     inkscape:window-x="632"
     inkscape:window-y="1432"
     inkscape:window-maximized="1"
     inkscape:current-layer="a" />
  <defs
     id="defs43">
    <style
       id="style41">.b{fill:#c8102e;}</style>
  </defs>
  <polygon
     points="154.99,24.9 154.99,47.09 143.85,47.09 143.85,1.76 154.99,1.76 154.99,22.01 171.37,1.76 184.58,1.76 166.71,23.33 185.23,47.09 171.95,47.09 "
     id="polygon45"
     transform="matrix(1.3,0,0,1.3,-1.3,-1.3)" />
  <polygon
     points="190.21,47.09 190.21,1.76 221.87,1.76 221.87,11.09 201.35,11.09 201.35,19.37 219.87,19.37 219.87,28.44 201.35,28.44 201.35,37.76 222.91,37.76 222.91,47.09 "
     id="polygon47"
     transform="matrix(1.3,0,0,1.3,-1.3,-1.3)" />
  <polygon
     points="241.25,47.09 252.35,47.09 252.35,11.07 266.09,11.07 266.09,1.76 227.44,1.76 227.44,11.07 241.25,11.07 "
     id="polygon51"
     transform="matrix(1.3,0,0,1.3,-1.3,-1.3)" />
  <g
     id="g75"
     transform="translate(38.7635,6.0275)">
    <path
       d="m -4.2485,31.2435 17.68,22.646 h -16.588 l -21.125,-28.392 v 28.392 h -14.482 v -58.929 h 26.52 c 12.623,0 21.463,7.826 21.463,19.11 0,7.995 -5.135,15.236 -13.468,17.173 m -0.845,-17.004 c 0,-4.381 -3.458,-7.41 -8.502,-7.41 h -10.608 v 14.898 h 10.608 c 5.135,0 8.502,-3.029 8.502,-7.488"
       id="path53"
       style="stroke-width:1.3" />
    <path
       class="b"
       d="m 48.4275,6.6605 c 10.621,0 18.915,8.125 18.915,19.292 0,8.853 -4.368,14.118 -10.257,18.109 l 8.086,10.816 c 10.075,-6.864 16.393,-16.393 16.393,-28.925 0,-18.486 -14.69,-31.98 -33.137,-31.98 -18.447,0 -33.137,13.494 -33.137,31.98 0,12.532 6.318,22.061 16.393,28.925 l 8.086,-10.816 c -5.902,-3.991 -10.257,-9.256 -10.257,-18.109 0,-11.167 8.294,-19.292 18.915,-19.292"
       id="path55"
       style="stroke-width:1.3" />
    <path
       d="m 132.4075,37.5745 7.592,10.322 c -5.499,4.901 -12.35,6.981 -20.722,6.981 -16.575,0 -30.875,-12.103 -30.875,-30.537 0,-18.434 14.222,-30.368 30.888,-30.368 8.034,0 15.223,2.067 20.644,6.383 l -7.852,10.751 c -3.211,-2.535 -6.955,-4.446 -12.701,-4.446 -9.139,0 -16.497,7.267 -16.497,17.927 0,10.66 7.358,17.589 16.757,17.589 5.499,0 9.49,-2.067 12.779,-4.615"
       id="path57"
       style="stroke-width:1.3" />
    <polygon
       points="328.27,1.76 328.27,47.08 321.82,47.08 321.82,11.15 307.14,32.21 305.1,32.21 290.67,11.15 290.67,47.08 284.22,47.08 284.22,1.76 291.5,1.76 306.12,22.89 320.8,1.76 "
       id="polygon59"
       transform="translate(-296.26662,52.199357)" />
    <path
       d="m 37.563378,83.199357 c 0,-9.7 7.09,-16.73 16.92,-16.73 9.83,0 16.92,7.02 16.92,16.73 0,9.710003 -6.89,16.720003 -16.92,16.720003 -10.03,0 -16.92,-6.96 -16.92,-16.720003 m 27.64,0 c 0,-6.58 -4.4,-11.04 -10.72,-11.04 -6.32,0 -10.66,4.47 -10.66,11.04 0,6.57 4.53,11.040003 10.66,11.040003 6.13,0 10.72,-4.530003 10.72,-11.040003"
       id="path61" />
    <path
       d="m 94.443378,67.109357 v 5.55 h -2.49 c -6.13,0 -8.87,4.47 -8.87,10.98 V 99.27936 h -6 V 67.109357 h 6 v 5.68 c 2.04,-4.15 5.36,-5.68 8.94,-5.68 h 2.43 z"
       id="path63" />
    <path
       d="m 103.89338,87.029357 v -14.49 h -5.550002 v -5.43 h 5.550002 v -9.25 l 6.06,-1.98 v 11.23 h 9.06 v 5.43 h -9.06 v 13.66 c 0,5.420003 2.87,7.660003 8.04,7.660003 h 0.57 l -0.96,5.94 h -0.26 c -9.07,0 -13.47,-3.96 -13.47,-12.770003"
       id="path65" />
    <path
       d="M 155.85338,67.109357 V 96.85936 c 0,10.6 -6.45,16.34 -16.66,16.34 -7.28,0 -11.87,-2.68 -15.06,-6.96 l 4.91,-3.13 c 1.79,2.3 4.98,4.66 10.4,4.66 6.51,0 10.34,-3.77 10.34,-10.47 v -4.02 c -2.49,4.08 -6.57,6 -11.62,6 -9.06,0 -15.57,-6.77 -15.57,-16.280003 0,-9.51 6.32,-16.53 15.57,-16.53 5.17,0 9,2.17 11.62,6 v -5.36 z m -5.87,15.7 c 0,-5.81 -4.4,-10.98 -10.6,-10.98 -6.2,0 -10.6,4.85 -10.6,11.11 0,6.26 4.41,10.920003 10.66,10.920003 6.25,0 10.53,-4.790003 10.53,-11.040003"
       id="path67" />
    <path
       d="M 194.53338,67.109357 V 99.34936 h -6.06 v -5.68 c -2.55,4.4 -6.77,6.26 -11.68,6.26 -9.07,0 -15.51,-6.96 -15.51,-16.660003 0,-9.7 6.51,-16.79 15.51,-16.79 4.98,0 9.38,2.04 11.68,6.13 v -5.49 h 6.06 z m -5.74,16.09 c 0,-6.38 -4.66,-11.11 -10.85,-11.11 -6.19,0 -10.4,4.47 -10.4,11.17 0,6.7 4.15,11.040003 10.34,11.040003 6.19,0 10.91,-4.790003 10.91,-11.110003"
       id="path69" />
    <path
       d="M 233.22338,67.109357 V 96.85936 c 0,10.6 -6.45,16.34 -16.66,16.34 -7.28,0 -11.87,-2.68 -15.06,-6.96 l 4.91,-3.13 c 1.79,2.3 4.98,4.66 10.41,4.66 6.51,0 10.34,-3.77 10.34,-10.47 v -4.02 c -2.49,4.08 -6.58,6 -11.62,6 -9.06,0 -15.57,-6.77 -15.57,-16.280003 0,-9.51 6.32,-16.53 15.57,-16.53 5.17,0 9,2.17 11.62,6 v -5.36 h 6.07 z m -5.87,15.7 c 0,-5.81 -4.4,-10.98 -10.6,-10.98 -6.2,0 -10.6,4.85 -10.6,11.11 0,6.26 4.4,10.920003 10.66,10.920003 6.26,0 10.53,-4.790003 10.53,-11.040003"
       id="path71" />
    <path
       d="m 270.50338,84.919357 h -25.6 c 0.57,6.000003 4.53,9.700003 10.21,9.700003 4.53,0 7.34,-1.98 9.38,-4.02 l 4.15,3.13 c -2.55,3.06 -6.64,6.13 -13.6,6.13 -9.89,0 -16.28,-7.21 -16.28,-16.600003 0,-9.39 6.89,-16.79 16.09,-16.79 9.2,0 15.64,6.89 15.64,17.62 v 0.83 z m -6.38,-4.4 c -0.64,-5.68 -4.08,-9.07 -9.19,-9.07 -5.11,0 -9.19,3.32 -9.96,9.07 z"
       id="path73" />
  </g>
</svg>
